<svg xmlns="http://www.w3.org/2000/svg" viewBox="0 0 600 650"><metadata><?xpacket begin="﻿" id="W5M0MpCehiHzreSzNTczkc9d"?>
<x:xmpmeta xmlns:x="adobe:ns:meta/" x:xmptk="Adobe XMP Core 5.6-c137 79.159768, 2016/08/11-13:24:42        ">
   <rdf:RDF xmlns:rdf="http://www.w3.org/1999/02/22-rdf-syntax-ns#">
      <rdf:Description rdf:about=""/>
   </rdf:RDF>
</x:xmpmeta>
                                                                                                    
                                                                                                    
                                                                                                    
                                                                                                    
                                                                                                    
                                                                                                    
                                                                                                    
                                                                                                    
                                                                                                    
                                                                                                    
                                                                                                    
                                                                                                    
                                                                                                    
                                                                                                    
                                                                                                    
                                                                                                    
                                                                                                    
                                                                                                    
                                                                                                    
                                                                                                    
                           
<?xpacket end="w"?></metadata>
<style type="text/css">
	.st0{opacity:0.35;fill:#FFFFFF;}
	.st1{opacity:0.7;fill:#FFFFFF;}
	.st2{opacity:0.2;fill:#FFFFFF;}
	.st3{fill:#FFFFFF;}
</style><path class="st0" d="M600 232.7c-10.4 3.6-18.8 11.7-22.7 22 -6.4 0.6-11.6 5.1-13.2 11.1 -7.3 3.7-12.8 10.5-14.9 18.7 -1.8 2.5-3.2 5.5-3.8 8.7 -0.8 0.7-1.5 1.5-2.1 2.3 -8.1 2.8-14.4 9.4-16.8 17.7 -3.8 0.8-7.3 2.3-10.3 4.5 -4.9-7.4-13.3-12.3-22.8-12.3 -11.5 0-21.3 7.1-25.3 17.1 -4.2 3.9-7.1 9.3-8 15.3 -2-0.6-4.1-1-6.3-1 -8.6 0-16 5.2-19.1 12.7 -4.2-4-9.9-6.4-16.2-6.4 -1.3 0-2.7 0.1-4 0.3 -3.5-2.7-7.9-4.3-12.7-4.3 -5.4 0-10.4 2.1-14.1 5.5 -4.5-6.8-12.2-11.2-20.9-11.2 -13.8 0-25.1 11.2-25.1 25.1 0 3.5 0.7 6.8 2 9.9 -6.6 1.6-12 6.1-14.7 12.2 -2.3-2-5.3-3.2-8.6-3.2 -4.9 0-9.1 2.6-11.4 6.5 -2-0.7-4.1-1.1-6.3-1.1 -8 0-14.8 5.2-17.3 12.4 0.6 1.3 1 2.6 1.4 3.9 1-0.3 2-0.4 3.1-0.4 2 0 3.9 0.5 5.6 1.5 3.1-4.4 8.2-7.3 14-7.3 3.6 0 6.9 1.1 9.7 3 4.5-3.6 10.2-5.8 16.4-5.8 6.1 0 11.7 2.1 16.2 5.6 1.9-0.9 3.9-1.7 5.9-2.1 4.3-7.5 12.4-12.6 21.7-12.6 12 0 21.9 8.4 24.5 19.6 0.6 0 1.2-0.1 1.8-0.1 4.2 0 8.2 1 11.7 2.8 3.4-1.7 7.3-2.6 11.4-2.6 1.3 0 2.6 0.1 3.9 0.3 2.4-8.5 10.2-14.7 19.4-14.7 2.4 0 4.7 0.4 6.9 1.2 0.5-0.2 1.1-0.3 1.6-0.5 4.3-5 10.7-8.2 17.8-8.2 1.8 0 3.6 0.2 5.4 0.6 4.5-5.6 11.3-9.2 19.1-9.2 3.3 0 6.5 0.7 9.4 1.9 3.2-3.4 7.1-6 11.6-7.6 1.1-1.3 2.4-2.4 3.8-3.3 2.2-12.1 12.7-21.2 25.4-21.2 5.7 0 10.9 1.8 15.1 4.9 4.7-3.6 10.6-5.7 17-5.7 0.4 0 0.9 0 1.3 0 3.6-3.5 8.3-5.9 13.6-6.7V232.7z"/><path class="st0" d="M21.9 305.3c6.5 0 12.4 2.4 17 6.3 3-1 6.2-1.6 9.5-1.6 10.4 0 19.5 5.4 24.7 13.6 3.6 4.1 5.7 9.5 5.7 15.4 0 2.8-0.5 5.5-1.4 8 0 0 0 0 0.1 0 4.9 0 9.4 1.3 13.3 3.6 3.9-2.3 8.5-3.6 13.4-3.6 7.6 0 14.5 3.2 19.4 8.3 2.3-0.8 4.8-1.3 7.3-1.3 5.4 0 10.3 2 14.1 5.3 3.7 1.3 7 3.3 9.8 6 4.3 0.1 8.4 1.2 12 3.1 4.9-8.6 14.2-14.4 24.9-14.4 13.9 0 25.5 9.9 28.1 23 1 0.5 2 1 3 1.6 9.1 0.5 16.6 6.9 18.8 15.4 4-7.8 12.2-13.2 21.6-13.2 0.4 0 0.9 0 1.3 0.1 0-0.5 0-0.9 0-1.4 0-4.3-1-8.5-2.7-12.2 -0.1-0.7-0.2-1.3-0.3-1.9 0.3-1.6 0.4-3.2 0.4-4.8 0-16.3-12.9-29.5-29-30.1 -1.8-3.5-5.3-6.1-9.3-6.7 -2.9-12.9-14.1-22.7-27.6-23.6 -5.3-7.3-14-12.1-23.7-12.1 -5.9 0-11.4 1.7-15.9 4.7 -2.3-2.1-5.4-3.4-8.7-3.4 -1.3 0-2.6 0.2-3.8 0.6 -1.8-2.4-4.6-3.9-7.8-3.9 -2.2 0-4.3 0.8-5.9 2 -3.7 0.2-6.7 2.6-7.8 6 -0.1 0-0.3 0-0.4 0 -4.9 0-9.5 1.2-13.5 3.3 -4.5-5.7-11.5-9.3-19.3-9.3 -6.5 0-12.4 2.5-16.8 6.6 -2-0.4-4.1-0.6-6.3-0.6 -1.7 0-3.4 0.1-5.1 0.4 -4.4-4-10.2-6.4-16.6-6.4 -11.1 0-20.4 7.3-23.5 17.4C21.2 305.4 21.6 305.3 21.9 305.3z"/><path class="st1" d="M600 332.3c-5.2 0.8-9.9 3.2-13.6 6.7 -0.4 0-0.9 0-1.3 0 -6.4 0-12.3 2.1-17 5.7 -4.3-3.1-9.5-4.9-15.1-4.9 -12.7 0-23.2 9.1-25.4 21.2 -1.4 0.9-2.7 2-3.8 3.3 -4.5 1.6-8.5 4.2-11.6 7.6 -2.9-1.2-6.1-1.9-9.4-1.9 -7.7 0-14.6 3.6-19.1 9.2 -1.7-0.4-3.5-0.6-5.4-0.6 -7.1 0-13.5 3.2-17.8 8.2 -0.5 0.1-1.1 0.3-1.6 0.5 -2.1-0.8-4.4-1.2-6.9-1.2 -9.3 0-17 6.2-19.4 14.7 -1.3-0.2-2.6-0.3-3.9-0.3 -4.1 0-7.9 0.9-11.4 2.6 -3.5-1.8-7.5-2.8-11.7-2.8 -0.6 0-1.2 0-1.8 0.1 -2.5-11.2-12.5-19.6-24.5-19.6 -9.3 0-17.4 5.1-21.7 12.6 -2.1 0.5-4.1 1.2-5.9 2.1 -4.4-3.5-10.1-5.6-16.2-5.6 -6.2 0-11.9 2.2-16.4 5.8 -2.8-1.9-6.1-3-9.7-3 -5.8 0-10.9 2.9-14 7.3 -1.7-0.9-3.6-1.5-5.6-1.5 -1.1 0-2.1 0.2-3.1 0.4 -2.7-10.5-12.2-18.2-23.5-18.2 -9.4 0-17.6 5.4-21.6 13.2 -2.2-8.5-9.7-14.8-18.8-15.4 -0.9-0.6-1.9-1.2-3-1.6 -2.6-13.1-14.2-23-28.1-23 -10.6 0-19.9 5.8-24.9 14.4 -3.6-1.9-7.7-3-12-3.1 -2.8-2.7-6.1-4.7-9.8-6 -3.8-3.3-8.7-5.3-14.1-5.3 -2.6 0-5.1 0.5-7.3 1.3 -4.9-5.1-11.7-8.3-19.4-8.3 -4.9 0-9.5 1.3-13.4 3.6 -3.9-2.3-8.4-3.6-13.3-3.6 0 0 0 0-0.1 0 0.9-2.5 1.4-5.2 1.4-8 0-5.9-2.2-11.3-5.7-15.4C68 315.4 58.9 310 48.5 310c-3.3 0-6.5 0.6-9.5 1.6 -4.6-3.9-10.5-6.3-17-6.3 -1.6 0-3.1 0.1-4.5 0.4 -1.3-0.3-2.7-0.4-4.1-0.4 -5.1 0-9.7 1.8-13.3 4.8v96.2c5.7 3.2 12.3 5 19.3 5 16.3 0 30.2-9.8 36.4-23.8 0.4 0.6 0.7 1.1 1.2 1.6 1.7 4.2 4.5 7.8 8.2 10.4 0 0.3 0 0.5 0 0.8 0 15 12.1 27.1 27.1 27.1 11.3 0 21-6.9 25-16.7 1.7 0.4 3.5 0.7 5.4 0.7 2.3 0 4.5-0.4 6.6-1 1.7 0.5 3.4 0.8 5.2 0.9 5 5.4 12.1 8.8 20 8.8 8.4 0 16-3.8 21-9.8 1.2 1.5 2.6 2.8 4.2 4 -0.1 0.5-0.1 1-0.1 1.6 0 6.7 5.4 12.1 12.1 12.1 2.4 0 4.5-0.7 6.4-1.8 2.6 1.2 5.5 1.8 8.6 1.8 6.7 0 12.6-3.1 16.5-8 3.4-0.2 6.6-1.2 9.3-2.9 0 0.6-0.1 1.2-0.1 1.8 0 12.8 10.4 23.2 23.2 23.2 3.3 0 6.4-0.7 9.2-1.9 4 4.5 9.8 7.3 16.3 7.3 4.3 0 8.3-1.2 11.7-3.4 3.5 3.9 8.5 6.4 14.2 6.5 1.8 10 10.4 17.5 20.9 17.5 10.5 0 19.2-7.6 20.9-17.6 3.5-1.5 6.7-3.7 9.3-6.5 1.8 0.4 3.7 0.6 5.7 0.6 7.1 0 13.5-2.9 18.2-7.5 2.6 5.9 7.4 10.6 13.3 13.3 2.5 5.7 8.1 9.6 14.7 9.6 5.9 0 11-3.2 13.8-7.9 1.7 0.4 3.5 0.5 5.3 0.5 1.3 0 2.6-0.1 3.9-0.3 5.2 9.3 15.2 15.6 26.7 15.6 13.7 0 25.3-9 29.2-21.4 13.4-1.4 23.8-12.6 23.8-26.4 0-0.7 0-1.5-0.1-2.2 4.8 4.1 11 6.6 17.8 6.6 9.4 0 17.7-4.7 22.6-12 4.1-3.8 7.1-8.7 8.5-14.3 4.1 2.3 8.8 3.6 13.8 3.6 7.7 0 14.7-3.1 19.8-8.1 1.8-0.7 3.5-1.5 5.2-2.5V332.3z"/><path class="st2" d="M60.9 294.4c1.7-0.3 3.4-0.4 5.1-0.4 2.2 0 4.3 0.2 6.3 0.6 0.5-0.5 1-0.9 1.5-1.3 -3.4-1.7-7.3-2.7-11.4-2.7 -2 0-3.9 0.2-5.8 0.7C58.2 292.2 59.6 293.2 60.9 294.4z"/><path class="st2" d="M28.2 268.7c-4.8 0-9.4 1.2-13.3 3.3 -0.5-0.4-1-0.8-1.6-1.2 -0.7-7-6.2-12.5-13.2-13.1v52.3c3.6-3 8.3-4.8 13.3-4.8 1.4 0 2.7 0.1 4.1 0.4 1.1-0.2 2.2-0.3 3.4-0.3 3.1-10.1 12.5-17.4 23.5-17.4 4.1 0 7.9 1 11.3 2.8C52.9 278.1 41.6 268.7 28.2 268.7z"/><path class="st2" d="M264.6 379.4c0 0.5 0 0.9 0 1.4 9.3 0.5 17.1 6.2 20.8 14.2 2.5-7.2 9.3-12.4 17.3-12.4 2.2 0 4.3 0.4 6.3 1.1 2.3-3.9 6.6-6.5 11.4-6.5 3.3 0 6.3 1.2 8.6 3.2 2.7-6 8.2-10.6 14.7-12.2 -1.3-3-2-6.4-2-9.9 0-4.9 1.4-9.5 3.9-13.4 -6.9 0.4-12.6 5.5-13.8 12.2 -0.8 0.8-1.5 1.7-2 2.7 -0.2 0.3-0.5 0.5-0.7 0.8 -1 0.2-1.9 0.6-2.7 1 -3 0.1-5.7 1.3-7.8 3.2 -0.7-0.2-1.4-0.3-2.1-0.3 -4.1 0-7.5 2.7-8.5 6.4 -0.1 0-0.2 0-0.4 0 -1.3 0-2.4 0.3-3.5 0.9 -1.2-0.6-2.5-0.9-3.9-0.9 -0.5 0-1 0-1.4 0.1 -1.5-0.9-3.3-1.5-5.2-1.6 -2-3-5.4-4.9-9.3-4.9 -0.6 0-1.2 0.1-1.8 0.2 -2.3-2.7-5.6-4.4-9.4-4.4 -2.8 0-5.4 0.9-7.4 2.5 -1.5 0.4-2.9 1.2-4 2.3 0 0 0 0 0 0 0.1 0.6 0.2 1.3 0.3 1.9C263.6 371 264.6 375.1 264.6 379.4z"/><path class="st3" d="M580.1 368.9c-3.5 3.5-6.4 7.7-8.5 12.3 -4.5 0.5-8.8 1.7-12.7 3.5 -14 4-25.4 14.3-30.7 27.8 -4.4-1.6-9.2-2.5-14.2-2.5 -10.1 0-19.4 3.7-26.5 9.8 -4.4-2.4-9.5-3.8-15-3.8 -8.7 0-16.5 3.5-22.2 9.2 -1.1-0.1-2.2-0.2-3.3-0.2 -10 0-19 4.2-25.4 11 -5.5-4.4-12.5-7-20.1-7 -6.1 0-11.7 1.7-16.6 4.6 -1.2-15.4-14.1-27.6-29.9-27.6 -10.6 0-19.8 5.5-25.2 13.7 -6.4 4.2-11 11-12.4 18.8 -1.7 0.3-3.4 0.9-4.9 1.5 -4.3-9.5-13.9-16-25-16 -6.7 0-12.8 2.4-17.5 6.3 -1.3-0.2-2.6-0.3-4-0.3 -6.2 0-11.8 2.2-16.3 5.8 -2.3-19-18.5-33.8-38.2-33.8 -5.2 0-10.2 1-14.8 2.9 -4.5-17.2-20.1-29.9-38.7-29.9 -13.6 0-25.6 6.8-32.8 17.1 -1.1-0.1-2.1-0.1-3.2-0.1 -7.2 0-13.9 1.8-19.8 5 -4.9-4.9-11.7-8-19.2-8 -2.5 0-4.9 0.3-7.1 1 -0.7-0.2-1.3-0.4-2-0.6 0.1-0.9 0.1-1.9 0.1-2.8 0-4.3-0.8-8.4-2.3-12.1C69.4 358.9 56.1 347 40 347c-10.6 0-20 5.2-25.9 13.1 -3.6-2-7.7-3.1-12.1-3.1 -0.7 0-1.3 0-2 0.1V485v165h600V485 355.1C591.8 357.1 584.8 362.2 580.1 368.9z"/></svg>
