<?xml version="1.0" encoding="utf-8"?>
<svg version="1.1" id="Layer_1" xmlns="http://www.w3.org/2000/svg" xmlns:xlink="http://www.w3.org/1999/xlink" x="0px" y="0px"
	 viewBox="0 0 70.4 73.2" style="enable-background:new 0 0 70.4 73.2;" xml:space="preserve">
<metadata><?xpacket begin="﻿" id="W5M0MpCehiHzreSzNTczkc9d"?>
<x:xmpmeta xmlns:x="adobe:ns:meta/" x:xmptk="Adobe XMP Core 5.6-c137 79.159768, 2016/08/11-13:24:42        ">
   <rdf:RDF xmlns:rdf="http://www.w3.org/1999/02/22-rdf-syntax-ns#">
      <rdf:Description rdf:about=""/>
   </rdf:RDF>
</x:xmpmeta>
                                                                                                    
                                                                                                    
                                                                                                    
                                                                                                    
                                                                                                    
                                                                                                    
                                                                                                    
                                                                                                    
                                                                                                    
                                                                                                    
                                                                                                    
                                                                                                    
                                                                                                    
                                                                                                    
                                                                                                    
                                                                                                    
                                                                                                    
                                                                                                    
                                                                                                    
                                                                                                    
                           
<?xpacket end="w"?></metadata>
<style type="text/css">
	.st0{fill:url(#SVGID_1_);}
	.st1{fill:#D72200;}
	.st2{fill:#A10600;}
</style>
<linearGradient id="SVGID_1_" gradientUnits="userSpaceOnUse" x1="-318.8342" y1="475.9295" x2="-317.8342" y2="475.9295" gradientTransform="matrix(69.4419 0 0 -69.4419 22140.9512 33079.2773)">
	<stop  offset="0" style="stop-color:#BF3800"/>
	<stop  offset="7.045450e-03" style="stop-color:#BF3800"/>
	<stop  offset="1" style="stop-color:#FF4A00"/>
</linearGradient>
<path class="st0" d="M67.1,30.1c1.7-3.3,2.7-6.9,2.8-10.5c0.1-3.6-0.7-7.3-2.6-10.5c-1.9-3.2-4.9-5.7-8.4-7.2
	c-2.2-0.9-4.5-1.4-6.9-1.4c-0.1,0-0.2,0-0.3,0c-1.3,0-2.6,0.1-3.9,0.4c-3.7,0.8-7.1,2.8-9.6,5.5c-1.3,1.4-2.3,3-3,4.8
	c-0.7-1.7-1.7-3.4-3-4.8c-2.5-2.8-5.9-4.7-9.6-5.5c-1.3-0.3-2.6-0.4-3.9-0.4c-0.1,0-0.2,0-0.3,0c-2.4,0-4.7,0.5-6.9,1.4
	C8,3.4,5,5.9,3.1,9.1c-1.9,3.1-2.7,6.8-2.6,10.5c0.1,3.6,1.2,7.2,2.8,10.5c3.3,6.6,8.8,11.8,14.6,16.5c5.5,4.5,11.3,8.7,17.3,12.6
	C42.5,55.7,63.8,36.5,67.1,30.1z"/>
<g>
	<path class="st1" d="M69.9,19.6c-0.1,3.6-1.2,7.2-2.8,10.5c-3.3,6.5-24.6,25.7-31.9,29.1l0,0v13.6c7.3-3.5,28.6-22.7,31.9-29.1
		c1.7-3.3,2.7-6.9,2.8-10.5c0-0.2,0-0.5,0-0.7V18.8C69.9,19.1,69.9,19.3,69.9,19.6z"/>
	<polygon class="st1" points="35.2,72.8 35.2,72.8 35.2,72.8 	"/>
	<path class="st2" d="M35.2,59.2c-6-3.9-11.8-8.1-17.3-12.6c-5.7-4.7-11.3-10-14.6-16.5c-1.6-3.3-2.7-6.9-2.8-10.5
		c0-0.2,0-0.5,0-0.7v13.6c0,0.2,0,0.5,0,0.7c0.1,3.6,1.2,7.2,2.8,10.5c3.3,6.6,8.8,11.8,14.6,16.5c5.5,4.5,11.3,8.7,17.3,12.6
		c0,0,0,0,0,0l0,0v0L35.2,59.2L35.2,59.2z"/>
</g>
<path class="st2" d="M35.2,73.3c-0.1,0-0.2,0-0.3-0.1c-6-3.9-11.9-8.1-17.3-12.6c-5.3-4.4-11.2-9.8-14.7-16.7
	C1.1,40.4,0.1,36.7,0,33.2c0-0.2,0-0.5,0-0.7c0,0,0-13.6,0-13.7c0-3.6,0.9-7,2.7-9.9c2-3.2,5-5.9,8.6-7.4C13.5,0.5,15.9,0,18.4,0
	l0.3,0c1.4,0,2.7,0.1,4,0.4c3.8,0.8,7.3,2.9,9.9,5.7c1,1.2,1.9,2.5,2.6,3.9c0.7-1.4,1.6-2.7,2.7-3.9c2.6-2.8,6.1-4.9,9.9-5.7
	C49,0.1,50.4,0,51.8,0l0.3,0c2.4,0,4.9,0.5,7.1,1.5c3.6,1.5,6.6,4.1,8.6,7.4c1.8,2.9,2.7,6.3,2.7,10c0,0,0,0,0,0c0,0,0,0.1,0,0.1V19
	c0,2,0,14,0,14.2c-0.1,3.5-1.1,7.2-2.9,10.7C64.3,50.2,43,69.6,35.4,73.2C35.4,73.3,35.3,73.3,35.2,73.3z M18.7,1l-0.3,0
	c-2.3,0-4.6,0.5-6.7,1.4c-3.4,1.4-6.3,3.9-8.1,7c-1.6,2.7-2.5,6-2.5,9.4c0,0.2,0,13.7,0,13.7c0,0.2,0,0.5,0,0.7
	c0.1,3.4,1.1,6.9,2.8,10.3c3.4,6.7,9.2,12,14.4,16.4c5.4,4.5,11.1,8.6,17,12.4c7.7-3.8,28.3-22.7,31.4-28.8
	c1.7-3.3,2.7-6.9,2.8-10.3c0-0.2,0-9.5,0-14.3c0,0,0,0,0,0v0c0-3.5-0.9-6.7-2.5-9.5c-1.9-3.1-4.7-5.5-8.1-7C56.7,1.5,54.4,1,52.1,1
	l-0.3,0c-1.3,0-2.6,0.1-3.8,0.4c-3.6,0.8-6.9,2.7-9.3,5.4c-1.2,1.4-2.2,2.9-2.9,4.6c-0.1,0.2-0.3,0.3-0.5,0.3l0,0
	c-0.2,0-0.4-0.1-0.5-0.3C34,9.7,33,8.1,31.8,6.8c-2.4-2.7-5.7-4.6-9.3-5.4C21.3,1.1,20,1,18.7,1z"/>
</svg>
