<?xml version="1.0" encoding="utf-8"?>
<svg version="1.1" id="Layer_1" xmlns="http://www.w3.org/2000/svg" xmlns:xlink="http://www.w3.org/1999/xlink" x="0px" y="0px"
	 viewBox="0 0 72.9 78.7" style="enable-background:new 0 0 72.9 78.7;" xml:space="preserve">
<metadata><?xpacket begin="﻿" id="W5M0MpCehiHzreSzNTczkc9d"?>
<x:xmpmeta xmlns:x="adobe:ns:meta/" x:xmptk="Adobe XMP Core 5.6-c137 79.159768, 2016/08/11-13:24:42        ">
   <rdf:RDF xmlns:rdf="http://www.w3.org/1999/02/22-rdf-syntax-ns#">
      <rdf:Description rdf:about=""/>
   </rdf:RDF>
</x:xmpmeta>
                                                                                                    
                                                                                                    
                                                                                                    
                                                                                                    
                                                                                                    
                                                                                                    
                                                                                                    
                                                                                                    
                                                                                                    
                                                                                                    
                                                                                                    
                                                                                                    
                                                                                                    
                                                                                                    
                                                                                                    
                                                                                                    
                                                                                                    
                                                                                                    
                                                                                                    
                                                                                                    
                           
<?xpacket end="w"?></metadata>
<style type="text/css">
	.st0{fill:url(#SVGID_1_);}
	.st1{fill:url(#SVGID_2_);}
	.st2{clip-path:url(#SVGID_7_);fill:url(#SVGID_8_);}
	.st3{fill:#FFFFFF;}
	.st4{fill:#338A0D;}
</style>
<linearGradient id="SVGID_1_" gradientUnits="userSpaceOnUse" x1="0.5" y1="55.3732" x2="72.419" y2="55.3732">
	<stop  offset="0" style="stop-color:#338A0D"/>
	<stop  offset="1" style="stop-color:#78BC34"/>
</linearGradient>
<path class="st0" d="M36.5,64.6c-19.9,0-36-14.3-36-32v13.6c0,17.7,16.1,32,36,32c19.9,0,36-14.3,36-32V32.5
	C72.4,50.2,56.3,64.6,36.5,64.6"/>
<linearGradient id="SVGID_2_" gradientUnits="userSpaceOnUse" x1="0.5" y1="55.3732" x2="72.419" y2="55.3732">
	<stop  offset="0" style="stop-color:#338A0D"/>
	<stop  offset="1" style="stop-color:#78BC34"/>
</linearGradient>
<path class="st1" d="M36.5,64.6c-19.9,0-36-14.3-36-32v13.6c0,17.7,16.1,32,36,32c19.9,0,36-14.3,36-32V32.5
	C72.4,50.2,56.3,64.6,36.5,64.6"/>
<g>
	<defs>
		<rect id="SVGID_3_" x="0.5" y="0.5" width="71.9" height="77.7"/>
	</defs>
	<clipPath id="SVGID_4_">
		<use xlink:href="#SVGID_3_"  style="overflow:visible;"/>
	</clipPath>
</g>
<g>
	<defs>
		<path id="SVGID_5_" d="M36.5,0.5c-19.9,0-36,14.3-36,32c0,17.7,16.1,32,36,32c19.9,0,36-14.3,36-32C72.4,14.8,56.3,0.5,36.5,0.5z"
			/>
	</defs>
	<linearGradient id="SVGID_6_" gradientUnits="userSpaceOnUse" x1="0.5" y1="32.5407" x2="72.419" y2="32.5407">
		<stop  offset="0" style="stop-color:#5BB235"/>
		<stop  offset="1" style="stop-color:#A0E45C"/>
	</linearGradient>
	<use xlink:href="#SVGID_5_"  style="overflow:visible;fill:url(#SVGID_6_);"/>
	<clipPath id="SVGID_7_">
		<use xlink:href="#SVGID_5_"  style="overflow:visible;"/>
	</clipPath>
		<linearGradient id="SVGID_8_" gradientUnits="userSpaceOnUse" x1="-318.0089" y1="478.1251" x2="-317.0089" y2="478.1251" gradientTransform="matrix(71.919 0 0 -71.919 22871.3789 34418.8203)">
		<stop  offset="0" style="stop-color:#5BB235"/>
		<stop  offset="1" style="stop-color:#A0E45C"/>
	</linearGradient>
	<rect x="0.5" y="0.5" class="st2" width="71.9" height="64.1"/>
</g>
<path class="st3" d="M40.7,14.1h-8.6c-1.1,0-2,0.8-2,1.7V27H17.7c-1.1,0-2,0.8-2,1.8v7.6c0,1,0.9,1.7,2,1.7h12.5v11.2
	c0,1,0.9,1.8,2,1.8h8.6c1.1,0,2-0.8,2-1.8V38.1h12.5c1.1,0,2-0.8,2-1.7v-7.6c0-1-0.9-1.8-2-1.8H42.7V15.8
	C42.7,14.9,41.8,14.1,40.7,14.1"/>
<path class="st4" d="M36.5,78.7C16.4,78.7,0,64.1,0,46.2V32.5C0,14.6,16.4,0,36.5,0c20.1,0,36.5,14.6,36.5,32.5v13.6
	C72.9,64.1,56.6,78.7,36.5,78.7z M36.5,1C16.9,1,1,15.2,1,32.5v13.6c0,17.4,15.9,31.5,35.5,31.5c19.5,0,35.5-14.1,35.5-31.5V32.5
	C71.9,15.2,56,1,36.5,1z"/>
</svg>
