<svg xmlns="http://www.w3.org/2000/svg" viewBox="0 0 75.4 85.8"><metadata><?xpacket begin="﻿" id="W5M0MpCehiHzreSzNTczkc9d"?>
<x:xmpmeta xmlns:x="adobe:ns:meta/" x:xmptk="Adobe XMP Core 5.6-c137 79.159768, 2016/08/11-13:24:42        ">
   <rdf:RDF xmlns:rdf="http://www.w3.org/1999/02/22-rdf-syntax-ns#">
      <rdf:Description rdf:about=""/>
   </rdf:RDF>
</x:xmpmeta>
                                                                                                    
                                                                                                    
                                                                                                    
                                                                                                    
                                                                                                    
                                                                                                    
                                                                                                    
                                                                                                    
                                                                                                    
                                                                                                    
                                                                                                    
                                                                                                    
                                                                                                    
                                                                                                    
                                                                                                    
                                                                                                    
                                                                                                    
                                                                                                    
                                                                                                    
                                                                                                    
                           
<?xpacket end="w"?></metadata>
<style type="text/css">
	.st0{fill:#FFFFFF;}
	.st1{fill:#32333D;}
</style><path class="st0" d="M61.8 1.7L7 7.4c-4.3 0.4-7.4 4.3-7 8.6l5 47.2c0.5 4.3 4.3 7.4 8.6 7l3.6-0.4c1.9 6.2-0.7 11.8-7.1 15.9 13.6-2.1 19.4-11 20-17.2l38.3-4c4.3-0.5 7.4-4.3 7-8.6l-5-47.2C69.9 4.3 66.1 1.2 61.8 1.7"/><path class="st1" d="M33.1 45c-1.1-1.2-2.8-1.7-4.6-1.5 -1.7 0.2-3.1 0.7-4.1 1.8 -0.9 1-1.3 2.4-1.1 4.2 0.2 2.1 0.8 2.9 1.6 3.8 1.2 1.2 2.8 1.7 4.5 1.6 1.6-0.2 3-0.7 3.9-1.7 0.9-1 1.3-2.5 1.1-4.6C34.3 47.2 33.9 45.9 33.1 45zM29 51.4c-1.3 0.1-2.1-0.7-2.2-2 -0.1-1.4 0.4-2.5 1.9-2.6 1.3-0.1 2.4 0.8 2.5 2.1C31.4 50.3 30.4 51.2 29 51.4z"/><path class="st1" d="M21.1 47c-0.3-2.6-0.1-2.5-0.4-4.6 -0.1-0.5-0.1-1-0.2-2.1 0-0.7-1.1-0.3-2-0.2 -0.8 0.1-1.7-0.2-1.7 0.5 0 0.7 0.3 1.6 0.3 2.2 0.1 1.6 0.3 2.5 0.5 4.6 0.2 2 0.3 3.6 0.4 5.3 0.1 0.8-0.1 1.6 0.1 2.3 0.2 0.7 1.1 0.5 2 0.4 0.9-0.1 1.6 0.1 1.6-0.7 0.1-1-0.2-1.6-0.2-2.1C21.4 50.8 21.4 49.4 21.1 47z"/><path class="st1" d="M60.4 49.5c-0.2-1-0.8-1.7-2-1.6 -1.6 0.1-1.8 1-1.7 2.2 0.1 1 1 1.6 2 1.5C59.8 51.5 60.6 50.6 60.4 49.5z"/><path class="st1" d="M41.5 46.8c-1-0.2-2.9-0.5-2.5-1.5 0.3-0.6 1.1-0.7 2 0 0.6 0.5 1.6 0.6 2.1-0.2 0.3-0.5 0.6-0.9 0.4-1.4 -0.3-0.6-0.3-0.5-0.6-0.8 -1.1-1-4.7-1.8-6.6 0 -1.6 1.5-1 4-0.1 4.8 0.8 0.8 2.1 1.7 3.8 1.8 0.6 0.1 0.9 0.3 0.6 0.6 -0.5 0.7-1.7 0.2-2.1-0.2 -0.3-0.3-0.4-0.2-1-0.3 -0.5 0-0.7 0.2-1.1 0.8 -0.3 0.4-0.7 0.9-0.4 1.5 0.2 0.5 0.4 0.5 0.6 0.7 1.4 1.3 4.2 1.7 6.2 0.3C44.9 51.3 44.5 47.3 41.5 46.8z"/><path class="st1" d="M58.2 46.8c0.9 0 1.5-0.4 1.5-1.4 -0.2-2.3-0.1-3.7-0.5-6.6 -0.1-0.9-0.1-1.1-0.2-2.3 -0.1-1-1.1-0.6-2.1-0.5 -0.8 0.1-1.6 0-1.6 0.7 0.1 1.1 0.1 1.1 0.2 2.3 0.5 5 0.5 4.9 0.8 6.7C56.6 46.7 57.4 46.9 58.2 46.8z"/><path class="st1" d="M53.2 48c-0.4 0.3-0.6 0.6-0.9 0.9 -0.3 0.3-0.7 0.4-1.1 0.3 -0.6-0.2-0.7-0.2-1-1.4L50 45.1c0.5-0.1 0.8-0.1 1.4-0.2 0.7-0.1 0.5-0.7 0.5-1.5 0-0.8-0.1-1.6-0.8-1.5C50.3 42 50.2 42 49.6 42c-0.1-0.7-0.1-0.9-0.2-1.9 -0.1-1.3 0.1 0.3-0.3-2.2 -0.1-0.7-1-0.8-1.7-0.7 -0.9 0.1-1.7 0.3-1.7 1.1 0.2 1.8 0.1 0.6 0.3 2.5 0.1 0.8 0.1 1 0.2 1.6 -0.3 0-0.6 0-0.9 0.1 -0.9 0.1-0.7 0.8-0.6 1.6 0.1 0.8 0.2 1.6 0.8 1.6 0.4-0.1 0.6 0 1.1-0.1l0.3 2.8c0.6 3.4 2.3 4 4.1 4.1 1.7 0 2.5-0.5 3.5-1.3 0.3-0.2 0.5-0.2 0.8-0.8 0.5-0.7 0-1.2-0.5-1.8C54.3 48 53.8 47.6 53.2 48z"/><path class="st1" d="M27.3 18.2c-0.9-0.1-1.6 0.2-1.8 0.8 -0.2 1.1-0.2 0.9-0.4 1.7 -0.3 1.3-0.4 1.8-0.6 3 0 0 0-0.1 0-0.1 -0.5-1.3-0.8-1.7-1.2-2.9 -0.2-0.6-0.3-0.7-0.7-1.4 -0.2-0.5-1.2-0.4-2-0.2 -1 0.2-1.8 0.7-1.6 1.4 0.4 1.1 0.5 1 0.9 1.8 0.6 1.1 1 2.1 1.6 3.2 0.8 1.5 1.1 2.1 1.8 3.6 -0.1 0.4-0.1 1.2-0.7 1.5 -1.1 0.6-1.1-0.3-1.7-0.2 -0.7 0.1-1 0.7-1.1 1.4 -0.1 0.8-0.1 1.3 0.3 1.8 0.6 0.7 1.6 0.9 2.9 0.7 2-0.3 3-1.2 3.4-2.5 0.5-1.7 0.5-2.3 0.9-4.1 0.7-3.2 0.8-4 1.8-8.3C29.3 18.2 28.2 18.3 27.3 18.2z"/><path class="st1" d="M40.3 18.9c-1.1-1.2-2.8-1.7-4.6-1.5 -1.7 0.2-3.1 0.7-4.1 1.8 -0.9 1-1.3 2.4-1.1 4.2 0.2 2.1 0.8 2.9 1.6 3.8 1.2 1.2 2.8 1.7 4.5 1.6 1.6-0.2 3-0.7 3.9-1.7 0.9-1 1.3-2.5 1.1-4.6C41.5 21.1 41 19.8 40.3 18.9zM36.2 25.3c-1.3 0.1-2.1-0.7-2.2-2 -0.1-1.4 0.4-2.5 1.9-2.6 1.3-0.1 2.4 0.8 2.5 2.1C38.6 24.1 37.6 25.1 36.2 25.3z"/><path class="st1" d="M52.4 25c-0.2-3.2-0.3-2.4-0.5-6.2 -0.1-0.7-0.1-1.2-0.2-2.1C51.5 15.9 50.7 16 50 16c-0.8 0.1-1.7 0.1-1.7 0.9 0 1 0 1.1 0.1 1.9 0.2 1.5 0.2 2.1 0.3 3.8 -0.4 1-1.5 1.2-2.2 0.5 -0.8-0.8-0.7-2.8-0.7-4.2 0-0.6 0-0.9-0.1-1.7 -0.1-0.8-0.9-0.8-1.7-0.7 -0.6 0.1-1.5 0.1-1.6 0.9 -0.1 0.9-0.1 0.8-0.1 1.8 0.1 2.6 0.3 5.3 1.4 7.1 0.8 1.3 4.2 1.7 5.1-0.1 0.2 0.7 0.1 0.3 0.3 0.7 0.2 0.5 1.3 0.4 2 0.2C52.9 26.5 52.5 25.9 52.4 25z"/></svg>
